<?xml version="1.0" encoding="UTF-8" standalone="no"?>
<svg
   xmlns:dc="http://purl.org/dc/elements/1.1/"
   xmlns:cc="http://creativecommons.org/ns#"
   xmlns:rdf="http://www.w3.org/1999/02/22-rdf-syntax-ns#"
   xmlns:svg="http://www.w3.org/2000/svg"
   xmlns="http://www.w3.org/2000/svg"
   xmlns:sodipodi="http://sodipodi.sourceforge.net/DTD/sodipodi-0.dtd"
   xmlns:inkscape="http://www.inkscape.org/namespaces/inkscape"
   width="56.500633"
   height="118.39226"
   viewBox="0 0 56.500633 118.39226"
   version="1.1"
   id="svg2"
   inkscape:version="0.91 r13725"
   sodipodi:docname="planta.svg">
  <metadata
     id="metadata14">
    <rdf:RDF>
      <cc:Work
         rdf:about="">
        <dc:format>image/svg+xml</dc:format>
        <dc:type
           rdf:resource="http://purl.org/dc/dcmitype/StillImage" />
        <dc:title></dc:title>
      </cc:Work>
    </rdf:RDF>
  </metadata>
  <defs
     id="defs12" />
  <sodipodi:namedview
     pagecolor="#ffffff"
     bordercolor="#666666"
     borderopacity="1"
     objecttolerance="10"
     gridtolerance="10"
     guidetolerance="10"
     inkscape:pageopacity="0"
     inkscape:pageshadow="2"
     inkscape:window-width="1920"
     inkscape:window-height="874"
     id="namedview10"
     showgrid="false"
     inkscape:object-paths="true"
     inkscape:snap-intersection-paths="true"
     inkscape:object-nodes="true"
     inkscape:snap-smooth-nodes="true"
     inkscape:snap-midpoints="true"
     fit-margin-top="0"
     fit-margin-left="0"
     fit-margin-right="0"
     fit-margin-bottom="0"
     inkscape:zoom="4.0689655"
     inkscape:cx="150.92635"
     inkscape:cy="76.542927"
     inkscape:window-x="0"
     inkscape:window-y="0"
     inkscape:window-maximized="0"
     inkscape:current-layer="svg2" />
  <!-- Base del tallo -->
  <!-- #stembaseR -->
  <path
     style="fill:#13c8b5"
     d="m 23.150391,80.523438 c -0.0019,4.149385 -1.698626,8.118316 -4.697266,10.986328 l -0.002,0.0098 9.763672,-0.002 9.765625,0.002 -0.0039,-0.0098 c -2.99863,-2.868024 -4.695385,-6.836943 -4.697265,-10.986328 l -5.064453,0 -5.064453,0 z"
     id="stembase"
     inkscape:connector-curvature="0" />
  <!-- #stembaseL -->
  <!-- Tallo #stem -->
  <path
     style="opacity:0.98999999;fill:#13c8b5;fill-rule:nonzero"
     d="m 23.13929,27.997196 0,71.834964 10.14085,0 0,-71.834964 z"
     id="stem"
     inkscape:connector-curvature="0" />
  <!-- Hoja 2 #leaf2 -->
  <!-- Hoja 1 #leaf1 -->
  <path
     d="m 6.63934,10.729576 c 6.286634,0 11.974638,2.547683 16.094422,6.668489 4.119784,4.120536 6.671284,9.809698 6.671284,16.097623 0,2.040828 -0.296816,4.010785 -0.800212,5.892715 -1.914723,0.51455 -3.888444,0.77672 -5.871072,0.77986 -6.037857,4e-5 -11.828434,-2.398943 -16.097848,-6.669189 -4.269418,-4.270247 -6.667942,-10.061958 -6.667922,-16.101009 0.0092,-1.986678 0.278117,-3.963619 0.800212,-5.880466 1.875258,-0.499705 3.83841,-0.788023 5.871136,-0.788023 l 0,0 z"
     id="leaf2"
     inkscape:connector-curvature="0"
     style="fill:#13c8b5;fill-rule:nonzero" />
  <path
     d="m 49.829418,9.9250708e-4 c -6.286697,0 -11.974712,2.54767099292 -16.094451,6.66844299292 -4.11979,4.1206035 -6.671338,9.8097195 -6.671338,16.0976355 0,2.040849 0.296844,4.010814 0.800212,5.892762 1.91474,0.514558 3.88848,0.776736 5.871126,0.77988 6.037872,4.1e-5 11.828461,-2.398951 16.097881,-6.669215 C 54.102268,18.500234 56.500783,12.708501 56.50074,6.6694355 56.49164,4.6827785 56.222603,2.7058575 55.700527,0.78903251 53.825216,0.28911751 51.862124,9.9250708e-4 49.829418,9.9250708e-4 l 0,0 z"
     id="leaf1"
     inkscape:connector-curvature="0"
     style="fill:#13c8b5;fill-rule:nonzero" />
  <!-- Semilla -->
  <path
     d="m 12.99843,103.18096 c 3e-6,8.40096 6.810309,15.21129 15.21125,15.2113 8.400947,0 15.211263,-6.81033 15.211266,-15.2113 -3e-6,-8.40097 -6.810319,-15.21131 -15.211266,-15.2113 -8.400941,0 -15.211247,6.81033 -15.21125,15.2113 l 0,0 z"
     id="seed"
     inkscape:connector-curvature="0"
     style="fill:#5a5da3;fill-rule:nonzero" />
  <path
     style="fill:#13c8b5;fill-rule:nonzero"
     inkscape:connector-curvature="0"
     id="leaf3"
     d="m 49.829418,41.156378 c -6.286697,0 -11.974712,2.547671 -16.094451,6.668443 -4.11979,4.120603 -6.671338,9.809719 -6.671338,16.097635 0,2.040849 0.296844,4.010814 0.800212,5.892762 1.91474,0.514558 3.88848,0.776736 5.871126,0.77988 6.037872,4.1e-5 11.828461,-2.398951 16.097881,-6.669215 4.26942,-4.270264 6.667935,-10.061997 6.667892,-16.101062 -0.0091,-1.986657 -0.278137,-3.963578 -0.800213,-5.880403 -1.875311,-0.499915 -3.838403,-0.78804 -5.871109,-0.78804 l 0,0 z" />
</svg>
